<svg xmlns="http://www.w3.org/2000/svg" style="display:none;">
  <symbol id="icon-facebbok" viewBox="0 0 512 512"><path d="M256 0C114.609 0 0 114.609 0 256c0 141.391 114.609 256 256 256 141.391 0 256-114.609 256-256C512 114.609 397.391 0 256 0zm0 472c-119.297 0-216-96.703-216-216S136.703 40 256 40s216 96.703 216 216-96.703 216-216 216z"/><path d="M316.75 216.812h-44.531v-32.5c0-9.969 10.312-12.281 15.125-12.281h28.767v-43.859l-32.97-.172c-44.983 0-55.25 32.703-55.25 53.672v35.141H195.25V262h32.641v122h44.328V262h37.656l6.875-45.188z"/></symbol>
  <symbol id="icon-twitter" viewBox="0 0 512 512"><path d="M256 0C114.609 0 0 114.609 0 256c0 141.392 114.609 256 256 256 141.392 0 256-114.608 256-256C512 114.609 397.392 0 256 0zm0 472c-119.297 0-216-96.702-216-216 0-119.297 96.703-216 216-216 119.298 0 216 96.703 216 216 0 119.298-96.702 216-216 216z"/><path d="M384 170.922c-4.312 2.562-17.248 7.671-29.312 8.953 7.735-4.491 19.188-19.203 22.016-30.89-7.436 5.109-24.516 12.562-32.95 12.562 0 0 0 .023.016.039C334.141 150.75 320.608 144 305.577 144c-29.154 0-52.81 25.461-52.81 56.875 0 4.36.481 8.595 1.357 12.672h-.017c-39.562-1.094-85.811-22.446-111.874-59-16 29.852-2.156 63.046 16.015 75.141-6.203.516-17.671-.766-23.061-6.407-.375 19.797 8.484 46.048 40.735 55.562-6.221 3.61-17.19 2.579-21.984 1.781 1.687 16.75 23.437 38.623 47.202 38.623-8.47 10.534-37.373 29.706-73.141 23.596C152.298 358.782 180.625 368 210.608 368c85.205 0 151.376-74.359 147.814-166.093 0-.11-.031-.219-.031-.313 0-.25.031-.5.031-.719 0-.281-.031-.562-.031-.859 7.75-5.688 18.155-15.782 25.609-29.094z"/></symbol>
  <symbol id="icon-behance" viewBox="0 0 512 512"><path d="M256 0C114.609 0 0 114.609 0 256c0 141.391 114.609 256 256 256 141.391 0 256-114.609 256-256C512 114.609 397.391 0 256 0zm0 472c-119.297 0-216-96.703-216-216S136.703 40 256 40s216 96.703 216 216-96.703 216-216 216z"/><path d="M242.531 192.656c4.719 6.594 7.094 14.547 7.094 23.797 0 9.516-2.406 17.203-7.156 23-2.688 3.234-6.578 6.203-11.75 8.859 7.859 2.922 13.797 7.484 17.812 13.766 4 6.328 6 13.922 6 22.891 0 9.25-2.281 17.531-6.875 24.859-2.906 4.891-6.531 8.969-10.906 12.344-4.906 3.797-10.75 6.375-17.422 7.812-6.703 1.375-13.969 2.078-21.797 2.078H128V176h74.578c18.797.266 32.141 5.812 39.953 16.656zm-83.75 10.485v34.375h37.5c6.688 0 12.109-1.281 16.328-3.844 4.141-2.609 6.25-7.172 6.25-13.719 0-7.297-2.766-12.047-8.281-14.406-4.75-1.625-10.859-2.406-18.234-2.406h-33.563zm0 60.265v41.578h37.438c6.688 0 11.906-.953 15.625-2.767 6.781-3.405 10.156-9.905 10.156-19.483 0-8.142-3.281-13.703-9.844-16.734-3.656-1.688-8.781-2.562-15.406-2.594h-37.969zM354.156 218.984c7.969 3.625 14.547 9.297 19.75 17.078 4.641 6.906 7.688 14.844 9.094 23.891.781 5.281 1.109 12.891.969 22.859h-83.094c.469 11.625 4.469 19.719 11.969 24.391 4.531 2.891 10.017 4.328 16.406 4.328 6.797 0 12.328-1.766 16.547-5.297 2.344-1.906 4.375-4.517 6.172-7.938h30.438c-.797 6.812-4.5 13.797-11.062 20.892C361.125 330.359 346.812 336 328.422 336c-15.172 0-28.547-4.734-40.172-14.203-11.594-9.484-17.375-24.859-17.375-46.219 0-19.969 5.219-35.328 15.719-46 10.453-10.656 24.047-16.016 40.767-16.016 9.92 0 18.858 1.86 26.795 5.422zm-44.594 26.078c-4.22 4.422-6.845 10.359-7.938 17.906H353c-.547-8.031-3.203-14.141-7.969-18.266-4.734-4.141-10.625-6.219-17.656-6.219-7.656.001-13.609 2.22-17.813 6.579zM288 192h80v16h-80z"/></symbol>
  <symbol id="icon-dribbble" viewBox="0 0 96.954 96.954"><path d="M48.477.065C21.747.066.001 21.782 0 48.477c.001 26.695 21.747 48.412 48.477 48.412s48.476-21.717 48.477-48.412C96.953 21.782 75.207.066 48.477.065zm31.895 22.852c5.528 6.851 8.892 15.508 9.048 24.934-1.84-.372-9.634-1.83-18.947-1.83-3.004 0-6.166.153-9.336.542a124.296 124.296 0 0 0-3.443-7.693c14.329-5.905 21.247-14.1 22.678-15.953zM48.477 7.641c10.328 0 19.77 3.839 26.982 10.161-1.143 1.559-7.333 9.294-21.152 14.52-6.395-11.697-13.4-21.376-15.066-23.625a40.819 40.819 0 0 1 9.236-1.056zm-17.592 3.974c1.412 1.942 8.422 11.725 14.982 23.329-17.606 4.626-33.242 4.93-37.014 4.93h-.4c2.709-12.495 11.153-22.878 22.432-28.259zM7.522 48.54c0-.336.008-.673.018-1.01.245.004.604.008 1.074.008 5.08 0 22.722-.423 40.901-5.819 1.103 2.16 2.155 4.35 3.129 6.538-.455.132-.91.266-1.36.411C30.817 55.28 19.563 72.78 17.833 75.639 11.421 68.415 7.522 58.926 7.522 48.54zm40.955 40.9c-9.397 0-18.06-3.182-24.979-8.515 1.169-2.294 9.659-17.584 32.092-25.392a.65.65 0 0 0 .047-.017c5.621 14.646 8.004 26.937 8.661 30.744a40.738 40.738 0 0 1-15.821 3.18zm23.194-7.211c-.549-3.15-2.755-14.67-7.85-28.719a54.046 54.046 0 0 1 8.245-.617c8.559-.001 15.255 1.873 16.811 2.346-1.85 11.161-8.238 20.812-17.206 26.99z"/></symbol>
  <symbol id="icon-github" viewBox="0 0 512 512"><path d="M256 0C114.615 0 0 114.615 0 256s114.615 256 256 256 256-114.615 256-256S397.385 0 256 0zm152.027 408.027c-19.76 19.759-42.756 35.267-68.354 46.094a213.671 213.671 0 0 1-19.801 7.246V423c0-20.167-6.916-35-20.75-44.5 8.668-.833 16.625-2 23.875-3.5s14.918-3.667 23-6.5c8.084-2.833 15.334-6.208 21.75-10.125 6.418-3.917 12.584-9 18.5-15.25 5.918-6.25 10.875-13.333 14.875-21.25s7.168-17.417 9.5-28.5c2.334-11.083 3.5-23.292 3.5-36.625 0-25.833-8.416-47.833-25.25-66 7.668-20 6.834-41.75-2.5-65.25l-6.25-.75c-4.332-.5-12.125 1.333-23.375 5.5s-23.875 11-37.875 20.5c-19.832-5.5-40.416-8.25-61.749-8.25-21.5 0-42 2.75-61.5 8.25-8.833-6-17.208-10.958-25.125-14.875s-14.25-6.583-19-8-9.167-2.292-13.25-2.625-6.708-.417-7.875-.25-2 .333-2.5.5c-9.333 23.667-10.167 45.417-2.5 65.25-16.833 18.167-25.25 40.167-25.25 66 0 13.333 1.167 25.542 3.5 36.625s5.5 20.583 9.5 28.5 8.958 15 14.875 21.25 12.083 11.333 18.5 15.25 13.667 7.292 21.75 10.125 15.75 5 23 6.5 15.208 2.667 23.875 3.5c-13.667 9.333-20.5 24.167-20.5 44.5v39.115a213.687 213.687 0 0 1-22.3-7.994c-25.597-10.827-48.594-26.335-68.353-46.094-19.758-19.758-35.267-42.756-46.093-68.354C46.679 313.195 41 285.043 41 256s5.679-57.195 16.879-83.675c10.827-25.597 26.335-48.594 46.093-68.353 19.758-19.759 42.756-35.267 68.353-46.093C198.805 46.679 226.957 41 256 41s57.195 5.679 83.676 16.879c25.598 10.827 48.594 26.335 68.354 46.093 19.758 19.758 35.266 42.756 46.092 68.353C465.32 198.805 471 226.957 471 256s-5.68 57.195-16.879 83.675c-10.826 25.596-26.336 48.595-46.094 68.352z"/></symbol>
  <symbol id="icon-linkedin" viewBox="0 0 512 512"><path d="M256 0C114.609 0 0 114.609 0 256c0 141.391 114.609 256 256 256 141.391 0 256-114.609 256-256C512 114.609 397.391 0 256 0zm0 472c-119.297 0-216-96.703-216-216S136.703 40 256 40s216 96.703 216 216-96.703 216-216 216z"/><path d="M128.094 383.891h48v-192h-48v192zm192-192c-41.094.688-61.312 30.641-64 32v-32h-48v192h48v-112c0-4.108 10.125-37 48-32 20.344 1.328 31.312 28.234 32 32v112l47.812.219V251.188c-1.687-19.188-11.281-58.61-63.812-59.297zm-168-64c-13.25 0-24 10.734-24 24s10.75 24 24 24 24-10.734 24-24-10.75-24-24-24z"/></symbol>
  <symbol id="arrow-left-thick" viewBox="0 0 24.00 24.00"><path d="M20 10v4h-9.01l3.505 3.505-2.414 2.414L4.16 12l7.92-7.92 2.414 2.415L10.99 10H20z"/></symbol>
  <symbol id="arrow-left" viewBox="0 0 24.00 24.00"><path d="M20 11v2H7.99l5.505 5.505-1.414 1.414L4.16 12l7.92-7.92 1.414 1.415L7.99 11H20z"/></symbol>
</svg>