<?xml version="1.0" encoding="utf-8"?>
<!-- Generator: Adobe Illustrator 19.0.0, SVG Export Plug-In . SVG Version: 6.00 Build 0)  -->
<svg version="1.1" id="Camada_1" xmlns="http://www.w3.org/2000/svg" xmlns:xlink="http://www.w3.org/1999/xlink" x="0px" y="0px"
	 viewBox="0 0 1024 1024" style="enable-background:new 0 0 1024 1024;" xml:space="preserve">
<style type="text/css">
	.st0{fill:url(#XMLID_6_);}
	.st1{fill:#FFFFFF;}
</style>
<g id="XMLID_1_">
	
		<linearGradient id="XMLID_6_" gradientUnits="userSpaceOnUse" x1="37.3948" y1="514" x2="877.3669" y2="514" gradientTransform="matrix(1 0 0 -1 0 1026)">
		<stop  offset="0" style="stop-color:#4FACFE"/>
		<stop  offset="1" style="stop-color:#00F2FE"/>
	</linearGradient>
	<circle id="XMLID_4_" class="st0" cx="512" cy="512" r="497.7"/>
	<path id="XMLID_197_" class="st1" d="M757,765.5c-10.9,6.9-25.2,5.3-34.3-3.8L553,592L444.8,700.3c-6.7,6.7-16.3,9.5-25.5,7.4
		s-16.7-8.7-19.9-17.6L255.9,291c-4.4-12.2,0.3-25.7,11.2-32.6c10.9-6.9,25.2-5.3,34.3,3.8l169.7,169.7l108.3-108.3
		c6.7-6.7,16.3-9.5,25.5-7.4s16.7,8.7,19.9,17.6l143.5,399.1C772.6,745,768,758.5,757,765.5z M436.5,630.6l97-97
		c10.8-10.8,28.2-10.8,39,0l102,102l-87-242.1l-97,97c-10.8,10.8-28.2,10.8-39,0l-102-102L436.5,630.6z"/>
</g>
</svg>
