<?xml version="1.0" encoding="utf-8"?>
<!-- Generator: Adobe Illustrator 21.0.2, SVG Export Plug-In . SVG Version: 6.00 Build 0)  -->
<svg version="1.1" id="Camada_1" xmlns="http://www.w3.org/2000/svg" xmlns:xlink="http://www.w3.org/1999/xlink" x="0px" y="0px"
	 viewBox="0 0 2982.2 1560.7" style="enable-background:new 0 0 2982.2 1560.7;" xml:space="preserve">
<style type="text/css">
	.st0{fill:url(#SVGID_1_);}
	.st1{fill:#FFFFFF;}
	.st2{fill:#161616;}
	.st3{fill:url(#SVGID_2_);}
	.st4{fill:url(#SVGID_3_);}
</style>
<g>
	<g id="XMLID_200_">
		<linearGradient id="SVGID_1_" gradientUnits="userSpaceOnUse" x1="1016.4948" y1="497.6823" x2="1856.4669" y2="497.6823">
			<stop  offset="0" style="stop-color:#4FACFE"/>
			<stop  offset="1" style="stop-color:#00F2FE"/>
		</linearGradient>
		<circle class="st0" cx="1491.1" cy="497.7" r="497.7"/>
	</g>
	<path id="XMLID_197_" class="st1" d="M1736.1,751.2c-10.9,6.9-25.2,5.3-34.3-3.8l-169.7-169.7L1423.9,686
		c-6.7,6.7-16.3,9.5-25.5,7.4c-9.2-2.1-16.7-8.7-19.9-17.6l-143.5-399.1c-4.4-12.2,0.3-25.7,11.2-32.6c10.9-6.9,25.2-5.3,34.3,3.8
		l169.7,169.7l108.3-108.3c6.7-6.7,16.3-9.5,25.5-7.4c9.2,2.1,16.7,8.7,19.9,17.6l143.5,399.1
		C1751.7,730.7,1747.1,744.2,1736.1,751.2z M1415.6,616.3l97-97c10.8-10.8,28.2-10.8,39,0l102,102l-87-242.1l-97,97
		c-10.8,10.8-28.2,10.8-39,0l-102-102L1415.6,616.3z"/>
	<g>
		<g id="XMLID_195_">
			<path id="XMLID_234_" class="st2" d="M348.3,1465.2c-5.6,0-10.4-1.9-14.2-5.8c-3.9-3.8-5.8-8.4-5.8-13.8v-8.4
				c-10.4,8.9-21.9,15.8-34.7,20.7c-12.7,4.9-26.1,7.3-40,7.3c-15.7,0-30.5-3-44.4-9.1c-13.9-6.1-26.1-14.3-36.4-24.7
				c-10.4-10.4-18.6-22.4-24.7-36.2c-6.1-13.8-9.1-28.5-9.1-44.2c0-15.7,3-30.5,9.1-44.4c6.1-13.9,14.3-26.1,24.7-36.4
				c10.4-10.4,22.5-18.6,36.4-24.7c13.9-6.1,28.7-9.1,44.4-9.1c13.9,0,27.2,2.4,40,7.3c12.7,4.9,24.3,11.8,34.7,20.7v-8.4
				c0-5.3,1.9-9.9,5.8-13.8c3.8-3.8,8.6-5.8,14.2-5.8c5.3,0,9.9,1.9,13.8,5.8c3.8,3.9,5.8,8.4,5.8,13.8v189.7
				c0,5.3-1.9,9.9-5.8,13.8C358.2,1463.3,353.6,1465.2,348.3,1465.2z M253.6,1275.9c-10.4,0-20.1,2-29.1,6c-9,4-17,9.4-23.8,16.2
				c-6.8,6.8-12.2,14.7-16.2,23.8c-4,9-6,18.7-6,29.1c0,10.4,2,20.1,6,29.1c4,9,9.4,17,16.2,23.8c6.8,6.8,14.7,12.1,23.8,16
				c9,3.9,18.7,5.8,29.1,5.8c10.4,0,20.1-1.9,29.1-5.8c9-3.8,17-9.2,23.8-16c6.8-6.8,12.1-14.7,16-23.8c3.8-9,5.8-18.7,5.8-29.1
				c0-10.4-1.9-20.1-5.8-29.1c-3.9-9-9.2-17-16-23.8c-6.8-6.8-14.7-12.2-23.8-16.2C273.7,1277.9,264,1275.9,253.6,1275.9z"/>
			<path id="XMLID_232_" class="st2" d="M425.6,1465.2c-5.3,0-9.9-1.9-13.8-5.8c-3.9-3.8-5.8-8.4-5.8-13.8v-311.5
				c0-5.3,1.9-9.9,5.8-13.8c3.8-3.8,8.4-5.8,13.8-5.8c5.3,0,9.9,1.9,13.8,5.8c3.8,3.9,5.8,8.4,5.8,13.8v311.5
				c0,5.3-1.9,9.9-5.8,13.8C435.5,1463.3,430.9,1465.2,425.6,1465.2z"/>
			<path id="XMLID_229_" class="st2" d="M673.1,1361.2H504.7c1.2,9.2,3.9,17.7,8.2,25.5c4.3,7.9,9.8,14.7,16.4,20.4
				c6.7,5.8,14.2,10.3,22.7,13.6c8.4,3.3,17.4,4.9,26.9,4.9c5.6,0,10.7-0.4,15.3-1.3c4.6-0.9,8.9-2.3,12.9-4.2c4-1.9,8-4.3,12-7.1
				c4-2.8,8.4-6,13.1-9.6c1.8-1.5,3.6-2.7,5.6-3.8c1.9-1,4.5-1.6,7.8-1.6c5.6,0,10.4,1.9,14.2,5.8c3.8,3.9,5.8,8.4,5.8,13.8
				c0,3.3-0.6,5.9-1.8,8c-1.2,2.1-2.5,4-4,5.8c-4.7,5.3-10.3,10.1-16.7,14.4c-6.4,4.3-13.2,7.9-20.4,10.7c-7.3,2.8-14.7,5-22.2,6.4
				c-7.6,1.5-14.7,2.2-21.5,2.2c-15.7,0-30.5-3-44.4-9.1c-13.9-6.1-26.1-14.3-36.4-24.7c-10.4-10.4-18.6-22.4-24.7-36.2
				c-6.1-13.8-9.1-28.5-9.1-44.2c0-15.7,3-30.5,9.1-44.4c6.1-13.9,14.3-26.1,24.7-36.4c10.4-10.4,22.5-18.6,36.4-24.7
				c13.9-6.1,28.7-9.1,44.4-9.1c15.1,0,29.3,2.5,42.7,7.6c13.3,5,25.2,12.2,35.5,21.6c10.4,9.3,18.7,20.4,24.9,33.3
				c6.2,12.9,9.8,27,10.7,42.4c0.3,5.9-1.6,10.7-5.6,14.4C683.1,1359.4,678.4,1361.2,673.1,1361.2z M578.9,1275.9
				c-15.4,0-29.3,4.2-41.8,12.7c-12.4,8.4-21.6,19.5-27.5,33.1h138.2c-5.6-13.9-14.7-25-27.3-33.3
				C607.8,1280.1,594,1275.9,578.9,1275.9z"/>
			<path id="XMLID_227_" class="st2" d="M856.1,1465.2c-2.7,0-5.4-0.6-8.2-1.8c-2.8-1.2-5.3-3.1-7.3-5.8l-61.8-82.6l-61.8,82.6
				c-3.9,5-9,7.6-15.6,7.6c-5.3,0-9.9-1.9-13.8-5.8c-3.9-3.8-5.8-8.4-5.8-13.8c0-4.7,1.5-9,4.4-12.9l66.6-84.9l-66.6-79.1
				c-3-3.8-4.4-8.1-4.4-12.9c0-5.3,1.9-9.9,5.8-13.8c3.8-3.8,8.4-5.8,13.8-5.8c6.5,0,11.7,2.4,15.6,7.1l61.8,77.8l62.2-77.8
				c3.8-4.7,8.9-7.1,15.1-7.1c5.3,0,9.9,1.9,13.8,5.8c3.8,3.9,5.8,8.4,5.8,13.8s-1.5,9.6-4.4,12.9l-66.6,79.1l66.6,84.9
				c3,3.9,4.4,8.2,4.4,12.9c0,5.3-1.9,9.9-5.8,13.8C866,1463.3,861.5,1465.2,856.1,1465.2z"/>
			<path id="XMLID_224_" class="st2" d="M1074.3,1465.2c-5.6,0-10.4-1.9-14.2-5.8c-3.9-3.8-5.8-8.4-5.8-13.8v-8.4
				c-10.4,8.9-21.9,15.8-34.7,20.7c-12.7,4.9-26.1,7.3-40,7.3c-15.7,0-30.5-3-44.4-9.1c-13.9-6.1-26.1-14.3-36.4-24.7
				c-10.4-10.4-18.6-22.4-24.7-36.2c-6.1-13.8-9.1-28.5-9.1-44.2c0-15.7,3-30.5,9.1-44.4c6.1-13.9,14.3-26.1,24.7-36.4
				c10.4-10.4,22.5-18.6,36.4-24.7c13.9-6.1,28.7-9.1,44.4-9.1c13.9,0,27.2,2.4,40,7.3c12.7,4.9,24.3,11.8,34.7,20.7v-8.4
				c0-5.3,1.9-9.9,5.8-13.8c3.8-3.8,8.6-5.8,14.2-5.8c5.3,0,9.9,1.9,13.8,5.8c3.8,3.9,5.8,8.4,5.8,13.8v189.7
				c0,5.3-1.9,9.9-5.8,13.8C1084.2,1463.3,1079.6,1465.2,1074.3,1465.2z M979.6,1275.9c-10.4,0-20.1,2-29.1,6c-9,4-17,9.4-23.8,16.2
				c-6.8,6.8-12.2,14.7-16.2,23.8c-4,9-6,18.7-6,29.1c0,10.4,2,20.1,6,29.1c4,9,9.4,17,16.2,23.8c6.8,6.8,14.7,12.1,23.8,16
				c9,3.9,18.7,5.8,29.1,5.8c10.4,0,20.1-1.9,29.1-5.8c9-3.8,17-9.2,23.8-16c6.8-6.8,12.1-14.7,16-23.8c3.8-9,5.8-18.7,5.8-29.1
				c0-10.4-1.9-20.1-5.8-29.1c-3.9-9-9.2-17-16-23.8c-6.8-6.8-14.7-12.2-23.8-16.2C999.7,1277.9,990,1275.9,979.6,1275.9z"/>
			<path id="XMLID_222_" class="st2" d="M1170.7,1249.7c13.9-8.9,28.9-13.3,44.9-13.3c11.3,0,21.9,2.2,32,6.4
				c10.1,4.3,18.9,10.2,26.4,17.8c7.6,7.6,13.5,16.4,17.8,26.4c4.3,10.1,6.4,20.7,6.4,32v126.6c0,5.3-1.9,9.9-5.8,13.8
				c-3.9,3.8-8.4,5.8-13.8,5.8c-5.6,0-10.4-1.9-14.2-5.8c-3.9-3.8-5.8-8.4-5.8-13.8V1319c0-5.9-1.1-11.5-3.3-16.7
				c-2.2-5.2-5.3-9.8-9.3-13.8c-4-4-8.6-7.1-13.8-9.3c-5.2-2.2-10.7-3.3-16.7-3.3c-5.9,0-11.6,1.1-16.9,3.3s-9.9,5.3-13.8,9.3
				c-3.9,4-6.9,8.6-9.1,13.8c-2.2,5.2-3.3,10.7-3.3,16.7c0,0.9-0.3,2.2-0.9,4v122.6c0,5.3-1.9,9.9-5.8,13.8
				c-3.9,3.8-8.4,5.8-13.8,5.8c-5.6,0-10.4-1.9-14.2-5.8c-3.9-3.8-5.8-8.4-5.8-13.8v-192.4c0-5.6,1.9-10.4,5.8-14.2
				c3.8-3.8,8.6-5.8,14.2-5.8C1162.7,1233.3,1168.9,1238.8,1170.7,1249.7z"/>
			<path id="XMLID_219_" class="st2" d="M1516.4,1465.2c-5.6,0-10.4-1.9-14.2-5.8c-3.9-3.8-5.8-8.4-5.8-13.8v-8.4
				c-10.4,8.9-21.9,15.8-34.7,20.7c-12.7,4.9-26.1,7.3-40,7.3c-15.7,0-30.5-3-44.4-9.1c-13.9-6.1-26.1-14.3-36.4-24.7
				c-10.4-10.4-18.6-22.4-24.7-36.2c-6.1-13.8-9.1-28.5-9.1-44.2c0-15.7,3-30.5,9.1-44.4c6.1-13.9,14.3-26.1,24.7-36.4
				c10.4-10.4,22.5-18.6,36.4-24.7c13.9-6.1,28.7-9.1,44.4-9.1c13.9,0,27.2,2.4,40,7.3c12.7,4.9,24.3,11.9,34.7,21.1v-130.6
				c0-5.3,1.9-9.9,5.8-13.8c3.8-3.8,8.6-5.8,14.2-5.8c5.3,0,9.9,1.9,13.8,5.8c3.8,3.9,5.8,8.4,5.8,13.8v311.5
				c0,5.3-1.9,9.9-5.8,13.8C1526.3,1463.3,1521.7,1465.2,1516.4,1465.2z M1421.7,1275.9c-10.4,0-20.1,2-29.1,6
				c-9,4-17,9.4-23.8,16.2c-6.8,6.8-12.2,14.7-16.2,23.8c-4,9-6,18.7-6,29.1c0,10.4,2,20.1,6,29.1c4,9,9.4,16.9,16.2,23.5
				c6.8,6.7,14.7,12,23.8,16c9,4,18.7,6,29.1,6c10.1,0,19.7-2,28.9-6c9.2-4,17.1-9.3,23.8-16c6.7-6.7,12-14.5,16-23.5
				c4-9,6-18.7,6-29.1c0-10.4-2-20.1-6-29.1c-4-9-9.3-17-16-23.8c-6.7-6.8-14.6-12.2-23.8-16.2
				C1441.4,1277.9,1431.8,1275.9,1421.7,1275.9z"/>
			<path id="XMLID_216_" class="st2" d="M1763.4,1361.2H1595c1.2,9.2,3.9,17.7,8.2,25.5c4.3,7.9,9.8,14.7,16.4,20.4
				c6.7,5.8,14.2,10.3,22.7,13.6c8.4,3.3,17.4,4.9,26.9,4.9c5.6,0,10.7-0.4,15.3-1.3c4.6-0.9,8.9-2.3,12.9-4.2c4-1.9,8-4.3,12-7.1
				c4-2.8,8.4-6,13.1-9.6c1.8-1.5,3.6-2.7,5.6-3.8c1.9-1,4.5-1.6,7.8-1.6c5.6,0,10.4,1.9,14.2,5.8c3.8,3.9,5.8,8.4,5.8,13.8
				c0,3.3-0.6,5.9-1.8,8c-1.2,2.1-2.5,4-4,5.8c-4.7,5.3-10.3,10.1-16.7,14.4c-6.4,4.3-13.2,7.9-20.4,10.7c-7.3,2.8-14.7,5-22.2,6.4
				c-7.6,1.5-14.7,2.2-21.5,2.2c-15.7,0-30.5-3-44.4-9.1c-13.9-6.1-26.1-14.3-36.4-24.7c-10.4-10.4-18.6-22.4-24.7-36.2
				c-6.1-13.8-9.1-28.5-9.1-44.2c0-15.7,3-30.5,9.1-44.4c6.1-13.9,14.3-26.1,24.7-36.4c10.4-10.4,22.5-18.6,36.4-24.7
				c13.9-6.1,28.7-9.1,44.4-9.1c15.1,0,29.3,2.5,42.7,7.6c13.3,5,25.2,12.2,35.5,21.6c10.4,9.3,18.7,20.4,24.9,33.3
				c6.2,12.9,9.8,27,10.7,42.4c0.3,5.9-1.6,10.7-5.6,14.4C1773.4,1359.4,1768.7,1361.2,1763.4,1361.2z M1669.2,1275.9
				c-15.4,0-29.3,4.2-41.8,12.7c-12.4,8.4-21.6,19.5-27.5,33.1h138.2c-5.6-13.9-14.7-25-27.3-33.3
				C1698.2,1280.1,1684.3,1275.9,1669.2,1275.9z"/>
			<path id="XMLID_214_" class="st2" d="M1858.5,1465.2c-8.9,0-17.8-1.5-26.9-4.4c-9-3-17.2-7.3-24.4-12.9
				c-7.3-5.6-13.2-12.6-17.8-20.9c-4.6-8.3-6.9-17.6-6.9-28c0-5.3,1.9-9.9,5.8-13.8c3.8-3.8,8.4-5.8,13.8-5.8
				c5.6,0,10.4,1.9,14.2,5.8c3.8,3.9,5.8,8.4,5.8,13.8c0,8.6,3.7,15.2,11.1,19.8c7.4,4.6,15.8,6.9,25.3,6.9
				c10.4,0,18.3-2.1,23.8-6.4c5.5-4.3,8.2-11.3,8.2-21.1c0-5.9-1.1-10.7-3.3-14.2c-2.2-3.6-5.4-6.7-9.6-9.3
				c-2.4-1.5-4.8-2.7-7.3-3.8c-2.5-1-5.3-2.1-8.2-3.3c-3-1.2-6-2.2-9.1-3.1c-3.1-0.9-6.3-1.9-9.6-3.1c-6.5-2.1-13.1-4.5-19.8-7.3
				c-6.7-2.8-12.7-6.4-18.2-10.9c-5.5-4.4-9.9-10.1-13.3-16.9c-3.4-6.8-5.1-15.4-5.1-25.8c0-9.5,1.8-18.1,5.3-26
				c3.6-7.8,8.4-14.6,14.7-20.2c6.2-5.6,13.4-10,21.5-13.1c8.1-3.1,16.7-4.7,25.5-4.7c8.9,0,17.4,1.6,25.5,4.7
				c8.1,3.1,15.3,7.5,21.3,13.1c6.1,5.6,11,12.4,14.7,20.2c3.7,7.9,5.6,16.5,5.6,26c0,5.3-1.9,9.9-5.8,13.8
				c-3.9,3.9-8.6,5.8-14.2,5.8c-5.3,0-9.9-1.9-13.8-5.8c-3.9-3.8-5.8-8.4-5.8-13.8c0-7.4-2.7-13.3-8-17.8
				c-5.3-4.4-11.9-6.7-19.6-6.7c-7.7,0-14.2,2.2-19.6,6.7s-8,10.4-8,17.8c0,6.8,4.1,12.3,12.4,16.4c4.7,2.7,10.1,4.9,16,6.7
				c3,1.5,6.1,2.7,9.3,3.6c3.3,0.9,6.5,2.1,9.8,3.6c6.5,2.4,13.1,5.3,19.8,8.7c6.7,3.4,12.7,7.7,18,12.9c5.3,5.2,9.7,11.5,13.1,18.9
				c3.4,7.4,5.1,16.4,5.1,27.1s-1.9,20.1-5.6,28.4c-3.7,8.3-8.8,15.3-15.3,21.1c-6.5,5.8-14.1,10.1-22.9,13.1
				C1877.5,1463.7,1868.3,1465.2,1858.5,1465.2z"/>
			<path id="XMLID_211_" class="st2" d="M1975.3,1206.2c-7.1,0-13.3-2.6-18.4-7.8c-5.2-5.2-7.8-11.3-7.8-18.4
				c0-7.4,2.6-13.6,7.8-18.4c5.2-4.9,11.3-7.3,18.4-7.3c7.4,0,13.6,2.4,18.7,7.3c5,4.9,7.6,11,7.6,18.4c0,7.1-2.6,13.3-7.8,18.4
				C1988.6,1203.6,1982.4,1206.2,1975.3,1206.2z M1975.3,1465.2c-5.3,0-9.9-1.9-13.8-5.8c-3.9-3.8-5.8-8.4-5.8-13.8v-189.7
				c0-5.3,1.9-9.9,5.8-13.8c3.8-3.8,8.4-5.8,13.8-5.8s10,1.9,14,5.8c4,3.9,6,8.4,6,13.8v189.7c0,5.3-2,9.9-6,13.8
				C1985.3,1463.3,1980.7,1465.2,1975.3,1465.2z"/>
			<path id="XMLID_208_" class="st2" d="M2134.8,1560.7c-9.8,0-19.5-1.3-29.1-3.8c-9.6-2.5-18.8-6.2-27.5-11.1
				c-8.7-4.9-16.7-10.8-24-17.8c-7.3-7-13.3-14.7-18-23.3c-0.6-1.5-1.2-3-1.8-4.7c-0.6-1.6-0.9-3.3-0.9-5.1c0-5.3,1.9-10,5.8-14
				c3.8-4,8.6-6,14.2-6c4.1,0,7.4,0.9,9.8,2.7c2.4,1.8,4.6,3.8,6.7,6.2c0.6,1.2,1.3,2.3,2.2,3.3c0.9,1,1.6,2.1,2.2,3.3l4,5.3
				c6.8,8,15.3,14.2,25.3,18.7c10.1,4.4,20.4,6.7,31.1,6.7c10.1,0,19.7-2,28.9-6c9.2-4,17.1-9.4,23.8-16.2c6.7-6.8,12-14.7,16-23.8
				c4-9,6-18.7,6-29.1v-9.3c-10.4,9.2-21.9,16.2-34.7,21.1c-12.7,4.9-26.1,7.3-40,7.3c-15.7,0-30.5-3-44.4-9.1
				c-13.9-6.1-26.1-14.3-36.4-24.7c-10.4-10.4-18.6-22.5-24.7-36.4c-6.1-13.9-9.1-28.7-9.1-44.4c0-15.7,3-30.4,9.1-44.2
				c6.1-13.8,14.3-25.8,24.7-36.2c10.4-10.4,22.5-18.6,36.4-24.7c13.9-6.1,28.7-9.1,44.4-9.1c13.9,0,27.2,2.4,40,7.3
				c12.7,4.9,24.3,11.8,34.7,20.7v-8.4c0-5.3,1.9-9.9,5.8-13.8c3.8-3.8,8.6-5.8,14.2-5.8c5.3,0,9.9,1.9,13.8,5.8
				c3.8,3.9,5.8,8.4,5.8,13.8v190.2c0,15.7-3,30.5-9.1,44.4c-6.1,13.9-14.3,26.1-24.7,36.4c-10.4,10.4-22.4,18.6-36.2,24.7
				C2165.3,1557.7,2150.5,1560.7,2134.8,1560.7z M2134.8,1275.9c-10.4,0-20.1,2-29.1,6c-9,4-17,9.3-23.8,16
				c-6.8,6.7-12.2,14.6-16.2,23.8c-4,9.2-6,18.8-6,28.9c0,10.4,2,20.1,6,29.1c4,9,9.4,17,16.2,23.8c6.8,6.8,14.7,12.2,23.8,16.2
				c9,4,18.7,6,29.1,6c10.1,0,19.7-2,28.9-6c9.2-4,17.1-9.4,23.8-16.2c6.7-6.8,12-14.7,16-23.8c4-9,6-18.7,6-29.1
				c0-10.1-2-19.7-6-28.9c-4-9.2-9.3-17.1-16-23.8c-6.7-6.7-14.6-12-23.8-16C2154.5,1277.9,2144.9,1275.9,2134.8,1275.9z"/>
			<path id="XMLID_206_" class="st2" d="M2325.9,1249.7c13.9-8.9,28.9-13.3,44.9-13.3c11.3,0,21.9,2.2,32,6.4
				c10.1,4.3,18.9,10.2,26.4,17.8c7.6,7.6,13.5,16.4,17.8,26.4c4.3,10.1,6.4,20.7,6.4,32v126.6c0,5.3-1.9,9.9-5.8,13.8
				c-3.9,3.8-8.4,5.8-13.8,5.8c-5.6,0-10.4-1.9-14.2-5.8c-3.9-3.8-5.8-8.4-5.8-13.8V1319c0-5.9-1.1-11.5-3.3-16.7
				c-2.2-5.2-5.3-9.8-9.3-13.8c-4-4-8.6-7.1-13.8-9.3c-5.2-2.2-10.7-3.3-16.7-3.3c-5.9,0-11.6,1.1-16.9,3.3
				c-5.3,2.2-9.9,5.3-13.8,9.3c-3.9,4-6.9,8.6-9.1,13.8c-2.2,5.2-3.3,10.7-3.3,16.7c0,0.9-0.3,2.2-0.9,4v122.6
				c0,5.3-1.9,9.9-5.8,13.8c-3.9,3.8-8.4,5.8-13.8,5.8c-5.6,0-10.4-1.9-14.2-5.8c-3.9-3.8-5.8-8.4-5.8-13.8v-192.4
				c0-5.6,1.9-10.4,5.8-14.2c3.8-3.8,8.6-5.8,14.2-5.8C2317.9,1233.3,2324.1,1238.8,2325.9,1249.7z"/>
			<path id="XMLID_203_" class="st2" d="M2671.1,1361.2h-168.4c1.2,9.2,3.9,17.7,8.2,25.5c4.3,7.9,9.8,14.7,16.4,20.4
				c6.7,5.8,14.2,10.3,22.7,13.6c8.4,3.3,17.4,4.9,26.9,4.9c5.6,0,10.7-0.4,15.3-1.3c4.6-0.9,8.9-2.3,12.9-4.2c4-1.9,8-4.3,12-7.1
				c4-2.8,8.4-6,13.1-9.6c1.8-1.5,3.6-2.7,5.6-3.8c1.9-1,4.5-1.6,7.8-1.6c5.6,0,10.4,1.9,14.2,5.8c3.8,3.9,5.8,8.4,5.8,13.8
				c0,3.3-0.6,5.9-1.8,8c-1.2,2.1-2.5,4-4,5.8c-4.7,5.3-10.3,10.1-16.7,14.4c-6.4,4.3-13.2,7.9-20.4,10.7c-7.3,2.8-14.7,5-22.2,6.4
				c-7.6,1.5-14.7,2.2-21.5,2.2c-15.7,0-30.5-3-44.4-9.1c-13.9-6.1-26.1-14.3-36.4-24.7c-10.4-10.4-18.6-22.4-24.7-36.2
				c-6.1-13.8-9.1-28.5-9.1-44.2c0-15.7,3-30.5,9.1-44.4c6.1-13.9,14.3-26.1,24.7-36.4c10.4-10.4,22.5-18.6,36.4-24.7
				c13.9-6.1,28.7-9.1,44.4-9.1c15.1,0,29.3,2.5,42.7,7.6c13.3,5,25.2,12.2,35.5,21.6c10.4,9.3,18.7,20.4,24.9,33.3
				c6.2,12.9,9.8,27,10.7,42.4c0.3,5.9-1.6,10.7-5.6,14.4C2681.1,1359.4,2676.5,1361.2,2671.1,1361.2z M2576.9,1275.9
				c-15.4,0-29.3,4.2-41.8,12.7c-12.4,8.4-21.6,19.5-27.5,33.1h138.2c-5.6-13.9-14.7-25-27.3-33.3
				C2605.9,1280.1,2592,1275.9,2576.9,1275.9z"/>
			<path id="XMLID_201_" class="st2" d="M2747.6,1249.3c4.7-4.1,10-7.3,15.8-9.6c5.8-2.2,11.6-3.3,17.6-3.3
				c14.5,0,26.4,3.6,35.8,10.7c9.3,7.1,16.5,17.3,21.5,30.7c1.2,3,1.6,6.1,1.3,9.3c-0.3,3.3-1.3,6.2-2.9,8.9
				c-1.6,2.7-3.9,4.8-6.7,6.4c-2.8,1.6-6.2,2.4-10,2.4c-3.3,0-6.2-0.7-8.7-2.2c-2.5-1.5-4.7-3.3-6.4-5.3c-1.5-1.8-2.7-3.6-3.8-5.6
				c-1-1.9-2.2-3.9-3.3-6c-2.1-3.3-4.4-5.9-6.9-8c-2.5-2.1-6.7-2.8-12.7-2.2c-3.9,0.3-7.6,1.5-11.1,3.6c-3.6,2.1-6.7,4.6-9.3,7.6
				c-2.7,3-4.8,6.3-6.4,10c-1.6,3.7-2.4,7.5-2.4,11.3v137.7c0,5.3-1.9,9.9-5.8,13.8c-3.9,3.8-8.4,5.8-13.8,5.8
				c-5.6,0-10.4-1.9-14.2-5.8c-3.9-3.8-5.8-8.4-5.8-13.8v-189.7c0-5.3,1.9-9.9,5.8-13.8c3.8-3.8,8.6-5.8,14.2-5.8
				c4.1,0,7.8,1.2,11.1,3.6C2743.7,1242.3,2746.1,1245.4,2747.6,1249.3z"/>
		</g>
		<g>
			<linearGradient id="SVGID_2_" gradientUnits="userSpaceOnUse" x1="2861.5293" y1="1337.6823" x2="2982.2334" y2="1337.6823">
				<stop  offset="0" style="stop-color:#4FACFE"/>
				<stop  offset="1" style="stop-color:#00F2FE"/>
			</linearGradient>
			<path class="st3" d="M2930.5,1337.8c-6.4-4-11.5-8.2-15.5-12.5c-4-4.4-7.3-9.6-9.9-15.9c-2.6-6.2-4.4-13.6-5.5-22.1
				c-1.1-8.5-1.6-18.6-1.6-30.1c0-11.2-0.2-19.7-0.7-25.7c-0.5-5.9-1.4-10.3-2.8-13c-1.4-2.7-3.4-4.6-5.9-5.6
				c-2.5-1-6.4-1.8-11.6-2.4c-4.4-0.6-8-2.7-11-6.4c-3-3.6-4.5-8.6-4.5-15c0-14,8.5-21,25.6-21c10.9,0,20.6,2.2,28.9,6.6
				c8.3,4.4,14.8,10.7,19.6,18.9c4.8,8.2,7.2,17.5,7.3,28c0.7,39.1,1.5,60.5,2.5,64.4c1.9,7.8,4.6,13.7,8.3,17.7
				c3.6,4.1,8.1,7.6,13.2,10.8c5.2,3.1,9,6.2,11.6,9.3c2.5,3.1,3.8,7.7,3.8,13.9c0,8.8-3.4,15.3-10.1,19.4
				c-8.2,5.1-14.2,9.5-17.9,13.3c-3.7,3.8-6.3,8.6-7.8,14.3c-1.5,5.7-2.4,14.3-2.6,25.7c-0.3,11.4-0.6,25.7-1,42.9
				c-0.4,16.2-5.6,29.3-15.6,39.1c-10.1,9.8-23.4,14.7-40.1,14.7c-8.2,0-14.6-1.8-19-5.5c-4.4-3.6-6.6-8.9-6.6-15.9
				c0-3.9,0.7-7.4,2.1-10.7c1.4-3.2,3.3-5.7,5.6-7.5s4.9-2.8,7.9-3.2c5.3-0.7,9.2-1.6,11.8-2.6c2.6-1.1,4.6-3.1,5.9-6
				c1.4-2.9,2.2-7.3,2.6-13c0.4-5.7,0.6-14,0.6-25c0.2-16.2,1.2-28.9,2.8-38.1c1.6-9.2,4.8-17.1,9.4-23.6
				C2914.8,1349.5,2921.6,1343.4,2930.5,1337.8z"/>
		</g>
		<g>
			<linearGradient id="SVGID_3_" gradientUnits="userSpaceOnUse" x1="0" y1="1337.6823" x2="120.7041" y2="1337.6823">
				<stop  offset="0" style="stop-color:#4FACFE"/>
				<stop  offset="1" style="stop-color:#00F2FE"/>
			</linearGradient>
			<path class="st4" d="M51.7,1337.6c6.4,4,11.5,8.2,15.5,12.5c4,4.4,7.3,9.6,9.9,15.9c2.6,6.2,4.4,13.6,5.5,22.1
				c1.1,8.5,1.6,18.6,1.6,30.1c0,11.2,0.2,19.7,0.7,25.7c0.5,5.9,1.4,10.3,2.8,13c1.4,2.7,3.4,4.6,5.9,5.6c2.5,1,6.4,1.8,11.6,2.4
				c4.4,0.6,8,2.7,11,6.4c3,3.6,4.5,8.6,4.5,15c0,14-8.5,21-25.6,21c-10.9,0-20.6-2.2-28.9-6.6c-8.3-4.4-14.8-10.7-19.6-18.9
				c-4.8-8.2-7.2-17.5-7.3-28c-0.7-39.1-1.5-60.5-2.5-64.4c-1.9-7.8-4.6-13.7-8.3-17.7c-3.6-4.1-8.1-7.6-13.2-10.8
				c-5.2-3.1-9-6.2-11.6-9.3c-2.5-3.1-3.8-7.7-3.8-13.9c0-8.8,3.4-15.3,10.1-19.4c8.2-5.1,14.2-9.5,17.9-13.3
				c3.7-3.8,6.3-8.6,7.8-14.3c1.5-5.7,2.4-14.3,2.6-25.7c0.3-11.4,0.6-25.7,1-42.9c0.4-16.2,5.6-29.3,15.6-39.1
				c10.1-9.8,23.4-14.7,40.1-14.7c8.2,0,14.6,1.8,19,5.5c4.4,3.6,6.6,8.9,6.6,15.9c0,3.9-0.7,7.4-2.1,10.7c-1.4,3.2-3.3,5.7-5.6,7.5
				s-4.9,2.8-7.9,3.2c-5.3,0.7-9.2,1.6-11.8,2.6c-2.6,1.1-4.6,3.1-5.9,6c-1.4,2.9-2.2,7.3-2.6,13c-0.4,5.7-0.6,14-0.6,25
				c-0.2,16.2-1.2,28.9-2.8,38.1c-1.6,9.2-4.8,17.1-9.4,23.6C67.4,1325.8,60.6,1331.9,51.7,1337.6z"/>
		</g>
	</g>
</g>
</svg>
